<svg width="257" height="256" viewBox="0 0 257 256" fill="none" xmlns="http://www.w3.org/2000/svg">
<path d="M167.721 3.60187L144.303 91.5848C139.424 109.914 150.402 128.977 168.696 133.865L256.267 157.327C258.707 147.795 254.316 137.776 245.535 133.377L198.213 109.914C185.772 104.049 178.454 91.0958 179.673 77.6541L183.332 25.5976C184.064 15.333 177.478 6.04584 167.721 3.60187Z" fill="#F5BC18"/>
<path d="M192.601 91.5845C195.772 97.2058 200.895 101.36 206.505 103.316C207.969 103.804 209.676 103.804 211.14 102.827L235.289 88.8962C244.559 83.5195 247.73 71.2997 241.875 62.0125C236.265 53.2143 224.557 50.7703 215.774 56.147L192.114 69.8332C190.65 70.5664 189.674 72.0328 189.43 73.7437C188.211 79.6092 189.187 85.9634 192.601 91.5845Z" fill="#F5BC18"/>
<path d="M4.28714 89.3853L92.1021 112.847C110.396 117.735 129.424 106.738 134.302 88.4077L157.72 0.669265C148.207 -1.77471 138.205 2.62443 133.814 11.4227L110.396 58.8357C104.543 71.2999 91.6135 78.6319 78.1985 77.4099L26.2408 73.7439C15.9955 73.2551 6.72597 79.6093 4.28714 89.3853Z" fill="#40C1EF"/>
<path d="M92.1021 64.701C97.712 61.5239 101.859 56.3916 103.81 50.7705C104.298 49.3041 104.298 47.5933 103.322 46.1268L89.4182 21.9317C84.052 12.6445 71.855 9.46732 62.5854 15.3328C53.8045 20.9539 51.3656 32.6851 56.7319 41.4833L70.3919 65.1898C71.1241 66.6562 72.5871 67.6338 74.2952 67.8782C80.1486 68.8557 86.4908 67.8783 92.1021 64.701Z" fill="#40C1EF"/>
<path d="M90.1504 252.397L113.567 164.415C118.446 146.086 107.47 127.023 89.1747 122.135L1.60327 98.6725C-0.835562 108.204 3.55496 118.224 12.3373 122.623L59.6594 146.086C72.1 151.951 79.4179 164.904 78.1985 178.345L74.5389 230.402C73.8066 240.667 80.3937 249.953 90.1504 252.397Z" fill="#8FC640"/>
<path d="M65.2693 164.415C62.0982 158.794 56.9756 154.639 51.3657 152.685C49.9027 152.195 48.1946 152.195 46.7316 153.173L22.5812 167.104C13.3131 172.48 10.142 184.7 15.9955 193.988C21.6068 202.786 33.3152 205.23 42.0961 199.853L65.7579 186.167C67.2209 185.433 68.1967 183.967 68.4403 182.256C69.6612 176.391 68.6853 170.036 65.2693 164.415Z" fill="#8FC640"/>
<path d="M253.583 166.615L165.768 143.153C147.474 138.264 128.447 149.262 123.569 167.592L100.151 255.331C109.664 257.775 119.666 253.375 124.056 244.578L147.474 197.164C153.328 184.7 166.257 177.368 179.672 178.589L231.63 182.256C241.875 182.744 251.144 176.391 253.583 166.615Z" fill="#F15A52"/>
<path d="M165.768 191.299C160.157 194.476 156.01 199.608 154.059 205.229C153.571 206.696 153.571 208.406 154.547 209.873L168.451 234.067C173.817 243.355 186.014 246.532 195.284 240.667C204.065 235.046 206.505 223.314 201.139 214.515L187.477 190.809C186.746 189.343 185.282 188.365 183.575 188.121C177.72 187.144 171.378 188.121 165.768 191.299Z" fill="#F15A52"/>
</svg>
